<svg width="14" height="18" viewBox="0 0 14 18" fill="none" xmlns="http://www.w3.org/2000/svg">
<path d="M12 6H11.1429V4.28571C11.1429 1.92 9.22286 0 6.85714 0C4.49143 0 2.57143 1.92 2.57143 4.28571V6H1.71429C0.771428 6 0 6.77143 0 7.71429V16.2857C0 17.2286 0.771428 18 1.71429 18H12C12.9429 18 13.7143 17.2286 13.7143 16.2857V7.71429C13.7143 6.77143 12.9429 6 12 6ZM6.85714 13.7143C5.91428 13.7143 5.14286 12.9429 5.14286 12C5.14286 11.0571 5.91428 10.2857 6.85714 10.2857C7.8 10.2857 8.57143 11.0571 8.57143 12C8.57143 12.9429 7.8 13.7143 6.85714 13.7143ZM9.51429 6H4.2V4.28571C4.2 2.82 5.39143 1.62857 6.85714 1.62857C8.32286 1.62857 9.51429 2.82 9.51429 4.28571V6Z" fill="#000008" fill-opacity="0.8"/>
</svg>
